<svg width="10" height="11" viewBox="0 0 10 11" fill="none" xmlns="http://www.w3.org/2000/svg">
<path d="M9.705 5.48653L5.205 0.986533C5.025 0.806533 4.775 0.696533 4.5 0.696533H1C0.45 0.696533 0 1.14653 0 1.69653V5.19653C0 5.47153 0.11 5.72153 0.295 5.90653L4.795 10.4065C4.975 10.5865 5.225 10.6965 5.5 10.6965C5.775 10.6965 6.025 10.5865 6.205 10.4015L9.705 6.90153C9.89 6.72153 10 6.47153 10 6.19653C10 5.92153 9.885 5.66653 9.705 5.48653ZM5.5 9.70153L1 5.19653V1.69653H4.5V1.69153L9 6.19153L5.5 9.70153Z" fill="#1B264F"/>
</svg>
